<mxfile host="app.diagrams.net" modified="2021-12-12T01:20:52.900Z" agent="5.0 (Macintosh; Intel Mac OS X 10_15_7) AppleWebKit/537.36 (KHTML, like Gecko) Chrome/96.0.4664.93 Safari/537.36" etag="n36e6ycWTZ15sF_VGE8B" version="15.9.4" type="github">
  <diagram id="UfNpsCcYTtWqRNBC5JqH" name="Page-1">
    <mxGraphModel dx="4003" dy="2767" grid="1" gridSize="10" guides="1" tooltips="1" connect="1" arrows="1" fold="1" page="1" pageScale="1" pageWidth="850" pageHeight="1100" background="none" math="1" shadow="0">
      <root>
        <mxCell id="0" />
        <mxCell id="1" parent="0" />
        <mxCell id="cmI_KTom7d1FH1pwmFM4-9" value="How to reduce 2 body \(\to\) 1&amp;nbsp;body?" style="rounded=1;whiteSpace=wrap;html=1;sketch=0;" parent="1" vertex="1">
          <mxGeometry x="170" y="-690" width="200" height="60" as="geometry" />
        </mxCell>
        <mxCell id="cmI_KTom7d1FH1pwmFM4-10" value="\(V\left(\mathbf{r}_{1}, \mathbf{r}_{2}\right)=V\left(\left|\mathbf{r}_{1}-\mathbf{r}_{2}\right|\right)\)" style="rounded=1;whiteSpace=wrap;html=1;fontStyle=0;glass=0;shadow=0;sketch=0;" parent="1" vertex="1">
          <mxGeometry x="390" y="-690" width="200" height="60" as="geometry" />
        </mxCell>
        <mxCell id="cmI_KTom7d1FH1pwmFM4-27" style="edgeStyle=orthogonalEdgeStyle;rounded=0;orthogonalLoop=1;jettySize=auto;html=1;entryX=0.5;entryY=0;entryDx=0;entryDy=0;" parent="1" source="cmI_KTom7d1FH1pwmFM4-18" target="cmI_KTom7d1FH1pwmFM4-19" edge="1">
          <mxGeometry relative="1" as="geometry" />
        </mxCell>
        <mxCell id="cmI_KTom7d1FH1pwmFM4-18" value="Purpose of the section&lt;br&gt;Center of mass" style="rounded=1;whiteSpace=wrap;html=1;shadow=0;glass=0;sketch=0;" parent="1" vertex="1">
          <mxGeometry x="1020" y="-840" width="160" height="60" as="geometry" />
        </mxCell>
        <mxCell id="cmI_KTom7d1FH1pwmFM4-28" style="edgeStyle=orthogonalEdgeStyle;rounded=0;orthogonalLoop=1;jettySize=auto;html=1;" parent="1" source="cmI_KTom7d1FH1pwmFM4-19" target="cmI_KTom7d1FH1pwmFM4-20" edge="1">
          <mxGeometry relative="1" as="geometry" />
        </mxCell>
        <mxCell id="cmI_KTom7d1FH1pwmFM4-19" value="Derive &lt;b&gt;reduced mass&lt;/b&gt; in the many-body system" style="rounded=1;whiteSpace=wrap;html=1;shadow=0;glass=0;sketch=0;" parent="1" vertex="1">
          <mxGeometry x="950" y="-740" width="180" height="60" as="geometry" />
        </mxCell>
        <mxCell id="cmI_KTom7d1FH1pwmFM4-29" style="edgeStyle=orthogonalEdgeStyle;rounded=0;orthogonalLoop=1;jettySize=auto;html=1;entryX=0;entryY=0.5;entryDx=0;entryDy=0;" parent="1" source="cmI_KTom7d1FH1pwmFM4-20" target="cmI_KTom7d1FH1pwmFM4-24" edge="1">
          <mxGeometry relative="1" as="geometry" />
        </mxCell>
        <mxCell id="cmI_KTom7d1FH1pwmFM4-20" value="&lt;b&gt;Relative Hamiltonian&lt;/b&gt; in the many-body system" style="rounded=1;whiteSpace=wrap;html=1;shadow=0;glass=0;sketch=0;fillColor=#dae8fc;strokeColor=#6c8ebf;" parent="1" vertex="1">
          <mxGeometry x="900" y="-640" width="180" height="60" as="geometry" />
        </mxCell>
        <mxCell id="cmI_KTom7d1FH1pwmFM4-21" value="\(H_{r e l}=\frac{\mathbf{p}_{r e l}^{2}}{2 \mu}+V(r)\)" style="rounded=1;whiteSpace=wrap;html=1;shadow=0;glass=0;sketch=0;fillColor=#dae8fc;strokeColor=#6c8ebf;" parent="1" vertex="1">
          <mxGeometry x="900" y="-580" width="180" height="60" as="geometry" />
        </mxCell>
        <mxCell id="cmI_KTom7d1FH1pwmFM4-22" value="\(\mu=\frac{m_{1} m_{2}}{m_{1}+m_{2}}\)" style="rounded=1;whiteSpace=wrap;html=1;shadow=0;glass=0;sketch=0;" parent="1" vertex="1">
          <mxGeometry x="1130" y="-740" width="120" height="60" as="geometry" />
        </mxCell>
        <mxCell id="cmI_KTom7d1FH1pwmFM4-39" style="edgeStyle=orthogonalEdgeStyle;rounded=0;orthogonalLoop=1;jettySize=auto;html=1;entryX=1;entryY=0.5;entryDx=0;entryDy=0;" parent="1" source="cmI_KTom7d1FH1pwmFM4-24" target="cmI_KTom7d1FH1pwmFM4-33" edge="1">
          <mxGeometry relative="1" as="geometry">
            <Array as="points">
              <mxPoint x="1390" y="-610" />
              <mxPoint x="1390" y="-470" />
            </Array>
          </mxGeometry>
        </mxCell>
        <mxCell id="cmI_KTom7d1FH1pwmFM4-24" value="Derive the &lt;b&gt;relative momentum operator&lt;/b&gt;" style="rounded=1;whiteSpace=wrap;html=1;shadow=0;glass=0;sketch=0;fillColor=#dae8fc;strokeColor=#6c8ebf;" parent="1" vertex="1">
          <mxGeometry x="1100" y="-640" width="180" height="60" as="geometry" />
        </mxCell>
        <mxCell id="cmI_KTom7d1FH1pwmFM4-26" value="\(\mathbf{p}_{r e l} \doteq-i \hbar\left(\frac{\partial}{\partial x} \hat{\mathbf{i}}+\frac{\partial}{\partial y} \hat{\mathbf{j}}+\frac{\partial}{\partial z} \hat{\mathbf{k}}\right)=-i \hbar \nabla_{r}\)" style="rounded=1;whiteSpace=wrap;html=1;shadow=0;glass=0;sketch=0;fillColor=#dae8fc;strokeColor=#6c8ebf;" parent="1" vertex="1">
          <mxGeometry x="1100" y="-580" width="270" height="60" as="geometry" />
        </mxCell>
        <mxCell id="cmI_KTom7d1FH1pwmFM4-32" value="\(\psi_{s y s}(\mathbf{R}, \mathbf{r})=\psi_{C M}(\mathbf{R}) \psi_{r e l}(\mathbf{r})\)" style="rounded=1;whiteSpace=wrap;html=1;shadow=0;glass=0;sketch=0;" parent="1" vertex="1">
          <mxGeometry x="1000" y="-380" width="200" height="60" as="geometry" />
        </mxCell>
        <mxCell id="cmI_KTom7d1FH1pwmFM4-33" value="&lt;span style=&quot;color: rgb(51 , 51 , 51)&quot;&gt;separated into&lt;/span&gt;&lt;br style=&quot;color: rgb(51 , 51 , 51)&quot;&gt;&lt;b style=&quot;color: rgb(51 , 51 , 51)&quot;&gt;center-of-mass motion&lt;br&gt;&lt;/b&gt;&lt;span style=&quot;color: rgb(51 , 51 , 51)&quot;&gt;and&lt;/span&gt;&lt;br style=&quot;color: rgb(51 , 51 , 51)&quot;&gt;&lt;b style=&quot;color: rgb(51 , 51 , 51)&quot;&gt;relative motion&lt;/b&gt;" style="rounded=1;whiteSpace=wrap;html=1;shadow=0;glass=0;sketch=0;" parent="1" vertex="1">
          <mxGeometry x="1000" y="-500" width="200" height="60" as="geometry" />
        </mxCell>
        <mxCell id="cmI_KTom7d1FH1pwmFM4-34" value="leading to separation of quantum states" style="rounded=1;whiteSpace=wrap;html=1;shadow=0;glass=0;sketch=0;" parent="1" vertex="1">
          <mxGeometry x="1000" y="-440" width="200" height="60" as="geometry" />
        </mxCell>
        <mxCell id="cmI_KTom7d1FH1pwmFM4-35" value="\(\frac{\mathbf{P}^{2}}{2 M} \psi_{C M}(\mathbf{R})=E_{C M} \psi_{C M}(\mathbf{R})\)" style="rounded=1;whiteSpace=wrap;html=1;shadow=0;glass=0;sketch=0;fillColor=#f8cecc;strokeColor=#b85450;" parent="1" vertex="1">
          <mxGeometry x="880" y="-320" width="200" height="60" as="geometry" />
        </mxCell>
        <mxCell id="cmI_KTom7d1FH1pwmFM4-46" style="edgeStyle=orthogonalEdgeStyle;rounded=0;orthogonalLoop=1;jettySize=auto;html=1;entryX=0.5;entryY=0;entryDx=0;entryDy=0;" parent="1" source="cmI_KTom7d1FH1pwmFM4-36" target="cmI_KTom7d1FH1pwmFM4-38" edge="1">
          <mxGeometry relative="1" as="geometry" />
        </mxCell>
        <mxCell id="cmI_KTom7d1FH1pwmFM4-36" value="\(\left(\frac{\mathbf{p}_{r e l}^{2}}{2 \mu}+V(\mathbf{r})\right) \psi_{r e l}(\mathbf{r})=E_{r e l} \psi_{r e l}(\mathbf{r})\)" style="rounded=1;whiteSpace=wrap;html=1;shadow=0;glass=0;sketch=0;fillColor=#dae8fc;strokeColor=#6c8ebf;" parent="1" vertex="1">
          <mxGeometry x="1080" y="-320" width="240" height="60" as="geometry" />
        </mxCell>
        <mxCell id="cmI_KTom7d1FH1pwmFM4-37" value="Generalization: for all &lt;b&gt;central potentials&lt;/b&gt;" style="rounded=1;whiteSpace=wrap;html=1;shadow=0;glass=0;sketch=0;" parent="1" vertex="1">
          <mxGeometry x="860" y="-70" width="480" height="30" as="geometry" />
        </mxCell>
        <mxCell id="cmI_KTom7d1FH1pwmFM4-38" value="Solve&amp;nbsp;SchrÃ¶dinger equation for energy and its states" style="rounded=1;whiteSpace=wrap;html=1;shadow=0;glass=0;sketch=0;" parent="1" vertex="1">
          <mxGeometry x="860" y="-220" width="480" height="30" as="geometry" />
        </mxCell>
        <mxCell id="cmI_KTom7d1FH1pwmFM4-40" value="Chapter 7 direct" style="swimlane;shadow=0;glass=0;sketch=0;" parent="1" vertex="1">
          <mxGeometry x="130" y="-770" width="480" height="330" as="geometry" />
        </mxCell>
        <mxCell id="cmI_KTom7d1FH1pwmFM4-44" value="&lt;span&gt;Relative motion&lt;/span&gt;" style="shape=tape;whiteSpace=wrap;html=1;shadow=0;glass=0;sketch=1;size=0.3333333333333333;fillColor=#dae8fc;strokeColor=#6c8ebf;" parent="1" vertex="1">
          <mxGeometry x="1200" y="-380" width="120" height="60" as="geometry" />
        </mxCell>
        <mxCell id="cmI_KTom7d1FH1pwmFM4-45" value="CM motion" style="shape=tape;whiteSpace=wrap;html=1;shadow=0;glass=0;sketch=1;size=0.3333333333333333;fillColor=#f8cecc;strokeColor=#b85450;" parent="1" vertex="1">
          <mxGeometry x="880" y="-380" width="120" height="60" as="geometry" />
        </mxCell>
        <mxCell id="cmI_KTom7d1FH1pwmFM4-47" value="\(\psi_{C M}(X, Y, Z)=\frac{1}{(2 \pi \hbar)^{3 / 2}} e^{i\left(P_{X} X+P_{Y} Y+P_{Z} Z\right) / \hbar}\)" style="rounded=1;whiteSpace=wrap;html=1;shadow=0;glass=0;sketch=0;fillColor=#f8cecc;strokeColor=#b85450;" parent="1" vertex="1">
          <mxGeometry x="860" y="-190" width="280" height="60" as="geometry" />
        </mxCell>
        <mxCell id="cmI_KTom7d1FH1pwmFM4-48" value="\(E_{C M}=\frac{1}{2 M}\left(P_{X}^{2}+P_{Y}^{2}+P_{Z}^{2}\right) .\)" style="rounded=1;whiteSpace=wrap;html=1;shadow=0;glass=0;sketch=0;fillColor=#f8cecc;strokeColor=#b85450;" parent="1" vertex="1">
          <mxGeometry x="1140" y="-190" width="200" height="60" as="geometry" />
        </mxCell>
        <mxCell id="cmI_KTom7d1FH1pwmFM4-50" value="Compare:&lt;br&gt;&lt;b&gt;CM motion:&lt;/b&gt;&amp;nbsp;contributes only an overall phase&lt;br&gt;&lt;b&gt;Relative motion:&lt;/b&gt; most important&amp;nbsp;" style="rounded=1;whiteSpace=wrap;html=1;shadow=0;glass=0;sketch=0;" parent="1" vertex="1">
          <mxGeometry x="860" y="-130" width="480" height="60" as="geometry" />
        </mxCell>
        <mxCell id="cmI_KTom7d1FH1pwmFM4-51" value="7.1 Separating Center-of-mass and Relative Motion" style="swimlane;shadow=0;glass=0;sketch=0;" parent="1" vertex="1">
          <mxGeometry x="840" y="-880" width="570" height="860" as="geometry" />
        </mxCell>
        <mxCell id="Ik9TuV0_vZSBALLoncqh-1" value="7.2 Energy Eigenvalue Equation in Spherical Coordinates" style="swimlane;" parent="1" vertex="1">
          <mxGeometry x="1590" y="-640" width="770" height="400" as="geometry" />
        </mxCell>
        <mxCell id="Ik9TuV0_vZSBALLoncqh-3" value="Use &lt;b&gt;spherical coordinates&lt;/b&gt;&lt;br&gt;due to&lt;br&gt;only-\(r\)-dependency" style="rounded=1;whiteSpace=wrap;html=1;" parent="1" vertex="1">
          <mxGeometry x="2060" y="-440" width="280" height="60" as="geometry" />
        </mxCell>
        <mxCell id="Ik9TuV0_vZSBALLoncqh-8" style="edgeStyle=orthogonalEdgeStyle;rounded=0;orthogonalLoop=1;jettySize=auto;html=1;" parent="1" source="Ik9TuV0_vZSBALLoncqh-4" target="Ik9TuV0_vZSBALLoncqh-7" edge="1">
          <mxGeometry relative="1" as="geometry">
            <Array as="points">
              <mxPoint x="2040" y="-350" />
              <mxPoint x="2040" y="-460" />
              <mxPoint x="1790" y="-460" />
            </Array>
          </mxGeometry>
        </mxCell>
        <mxCell id="Ik9TuV0_vZSBALLoncqh-4" value="Differentiation&lt;br&gt;\(d V=(\sin \theta d \theta)(d \phi)\left(r^{2} d r\right)=r^{2} d r d \Omega\)" style="rounded=1;whiteSpace=wrap;html=1;" parent="1" vertex="1">
          <mxGeometry x="2060" y="-380" width="280" height="60" as="geometry" />
        </mxCell>
        <mxCell id="Ik9TuV0_vZSBALLoncqh-6" value="\(\nabla^{2}=\frac{1}{r^{2}} \frac{\partial}{\partial r}\left(r^{2} \frac{\partial}{\partial r}\right)+\frac{1}{r^{2} \sin \theta} \frac{\partial}{\partial \theta}\left(\sin \theta \frac{\partial}{\partial \theta}\right)+\frac{1}{r^{2} \sin ^{2} \theta} \frac{\partial^{2}}{\partial \phi^{2}}\)" style="rounded=1;whiteSpace=wrap;html=1;" parent="1" vertex="1">
          <mxGeometry x="1610" y="-380" width="360" height="60" as="geometry" />
        </mxCell>
        <mxCell id="Ik9TuV0_vZSBALLoncqh-7" value="Find and substitute \(\nabla^{2}\)" style="rounded=1;whiteSpace=wrap;html=1;" parent="1" vertex="1">
          <mxGeometry x="1610" y="-440" width="360" height="60" as="geometry" />
        </mxCell>
        <mxCell id="Ik9TuV0_vZSBALLoncqh-9" value="" style="sketch=0;outlineConnect=0;fontColor=#232F3E;gradientColor=none;fillColor=#D45B07;strokeColor=none;dashed=0;verticalLabelPosition=bottom;verticalAlign=top;align=center;html=1;fontSize=12;fontStyle=0;aspect=fixed;pointerEvents=1;shape=mxgraph.aws4.container_registry_image;" parent="1" vertex="1">
          <mxGeometry x="1970" y="-434" width="48" height="48" as="geometry" />
        </mxCell>
        <mxCell id="Ik9TuV0_vZSBALLoncqh-11" value="7.3.1 Classical Angular Momentum" style="swimlane;" parent="1" vertex="1">
          <mxGeometry x="1490" y="-190" width="420" height="200" as="geometry" />
        </mxCell>
        <mxCell id="Ik9TuV0_vZSBALLoncqh-12" value="Spherical coordinate &lt;b&gt;SchrÃ¶dinger equation&lt;/b&gt;" style="rounded=1;whiteSpace=wrap;html=1;" parent="1" vertex="1">
          <mxGeometry x="1610" y="-320" width="360" height="60" as="geometry" />
        </mxCell>
        <mxCell id="Ik9TuV0_vZSBALLoncqh-13" value="7.3.2 Quantum Mechanical Angular Momentum" style="swimlane;" parent="1" vertex="1">
          <mxGeometry width="280" height="200" as="geometry" />
        </mxCell>
        <mxCell id="Ik9TuV0_vZSBALLoncqh-14" value="7.3 Angular Momentum" style="swimlane;" parent="1" vertex="1">
          <mxGeometry x="370" y="-130" width="280" height="200" as="geometry" />
        </mxCell>
        <mxCell id="Ik9TuV0_vZSBALLoncqh-84" style="edgeStyle=orthogonalEdgeStyle;rounded=0;orthogonalLoop=1;jettySize=auto;html=1;fontSize=12;" parent="1" source="Ik9TuV0_vZSBALLoncqh-15" target="Ik9TuV0_vZSBALLoncqh-16" edge="1">
          <mxGeometry relative="1" as="geometry" />
        </mxCell>
        <mxCell id="Ik9TuV0_vZSBALLoncqh-15" value="Classical angular momentum:&lt;br&gt;\(\mathbf{L}=\mathbf{r} \times \mathbf{p}\)" style="rounded=1;whiteSpace=wrap;html=1;" parent="1" vertex="1">
          <mxGeometry x="240" y="-370" width="120" height="60" as="geometry" />
        </mxCell>
        <mxCell id="Ik9TuV0_vZSBALLoncqh-16" value="Classical torque:&lt;br&gt;\(\tau=\mathbf{r} \times \mathbf{F}=\frac{d \mathbf{L}}{d t}\)" style="rounded=1;whiteSpace=wrap;html=1;" parent="1" vertex="1">
          <mxGeometry x="240" y="-290" width="120" height="60" as="geometry" />
        </mxCell>
        <mxCell id="Ik9TuV0_vZSBALLoncqh-17" value="&lt;b&gt;Spherical symmetry&lt;/b&gt; of &lt;b&gt;central force&lt;/b&gt;" style="rounded=1;whiteSpace=wrap;html=1;" parent="1" vertex="1">
          <mxGeometry x="-60" y="-340" width="220" height="60" as="geometry" />
        </mxCell>
        <mxCell id="Ik9TuV0_vZSBALLoncqh-20" value="&lt;div&gt;\(\left[L_{x}, L_{y}\right]=i \hbar L_{z}\)&lt;/div&gt;&lt;div&gt;\(\left[L_{y}, L_{z}\right]=i \hbar L_{x}\)&lt;/div&gt;&lt;span&gt;\(\left[L_{z}, L_{x}\right]=i \hbar L_{y}\)&lt;/span&gt;" style="rounded=1;whiteSpace=wrap;html=1;" parent="1" vertex="1">
          <mxGeometry x="40" y="480" width="240" height="70" as="geometry" />
        </mxCell>
        <mxCell id="Ik9TuV0_vZSBALLoncqh-21" value="Angular momentum operator" style="rounded=1;whiteSpace=wrap;html=1;" parent="1" vertex="1">
          <mxGeometry x="40" y="360" width="500" height="20" as="geometry" />
        </mxCell>
        <mxCell id="Ik9TuV0_vZSBALLoncqh-22" value="\(L_{x}=y p_{z}-z p_{y} \doteq-i \hbar\left(y \frac{\partial}{\partial z}-z \frac{\partial}{\partial y}\right)\)&lt;br&gt;\(L_{y}=z p_{x}-x p_{z} \doteq-i \hbar\left(z \frac{\partial}{\partial x}-x \frac{\partial}{\partial z}\right)\)&lt;br&gt;\(L_{z}=x p_{y}-y p_{x} \doteq-i \hbar\left(x \frac{\partial}{\partial y}-y \frac{\partial}{\partial x}\right)\)" style="rounded=1;whiteSpace=wrap;html=1;" parent="1" vertex="1">
          <mxGeometry x="40" y="380" width="240" height="100" as="geometry" />
        </mxCell>
        <mxCell id="Ik9TuV0_vZSBALLoncqh-27" value="\(\mathbf{L}^{2}=\mathbf{L} \cdot \mathbf{L}=L_{x}^{2}+L_{y}^{2}+L_{z}^{2}\)" style="rounded=1;whiteSpace=wrap;html=1;shadow=0;glass=0;sketch=0;fontSize=12;" parent="1" vertex="1">
          <mxGeometry x="300" y="380" width="240" height="100" as="geometry" />
        </mxCell>
        <mxCell id="Ik9TuV0_vZSBALLoncqh-29" value="&lt;div&gt;\(\left[\mathbf{L}^{2}, L_{x}\right]=0\)&lt;/div&gt;&lt;div&gt;\(\left[\mathbf{L}^{2}, L_{y}\right]=0\)&lt;/div&gt;&lt;div&gt;\(\left[\mathbf{L}^{2}, L_{z}\right]=0\)&lt;/div&gt;" style="rounded=1;whiteSpace=wrap;html=1;shadow=0;glass=0;sketch=0;fontSize=12;" parent="1" vertex="1">
          <mxGeometry x="300" y="480" width="240" height="70" as="geometry" />
        </mxCell>
        <mxCell id="Ik9TuV0_vZSBALLoncqh-33" value="The spin eigenvalue equations" style="rounded=1;whiteSpace=wrap;html=1;shadow=0;glass=0;sketch=0;fontSize=12;" parent="1" vertex="1">
          <mxGeometry x="560" y="360" width="420" height="20" as="geometry" />
        </mxCell>
        <mxCell id="Ik9TuV0_vZSBALLoncqh-35" value="&amp;nbsp;\(\ell\) is the &lt;b&gt;orbital angular momentum quantum number&lt;/b&gt;" style="rounded=1;whiteSpace=wrap;html=1;shadow=0;glass=0;sketch=0;fontSize=12;" parent="1" vertex="1">
          <mxGeometry x="560" y="440" width="200" height="60" as="geometry" />
        </mxCell>
        <mxCell id="Ik9TuV0_vZSBALLoncqh-36" value="\(m_{\ell}\) is the &lt;b&gt;orbital magnetic quantum number&lt;/b&gt;" style="rounded=1;whiteSpace=wrap;html=1;shadow=0;glass=0;sketch=0;fontSize=12;" parent="1" vertex="1">
          <mxGeometry x="780" y="440" width="200" height="60" as="geometry" />
        </mxCell>
        <mxCell id="Ik9TuV0_vZSBALLoncqh-38" value="Difference between&lt;br&gt;&amp;nbsp;&lt;b&gt;#spin angular momentum&lt;/b&gt;&amp;nbsp;and &lt;b&gt;#orbital angular momentum&lt;/b&gt;" style="rounded=1;whiteSpace=wrap;html=1;shadow=0;glass=0;sketch=0;fontSize=12;" parent="1" vertex="1">
          <mxGeometry x="560" y="500" width="200" height="60" as="geometry" />
        </mxCell>
        <mxCell id="Ik9TuV0_vZSBALLoncqh-39" value="\(s=\) half integers&lt;br&gt;\(\ell=\) only integers" style="rounded=1;whiteSpace=wrap;html=1;shadow=0;glass=0;sketch=0;fontSize=12;" parent="1" vertex="1">
          <mxGeometry x="560" y="560" width="200" height="60" as="geometry" />
        </mxCell>
        <mxCell id="Ik9TuV0_vZSBALLoncqh-40" value="&lt;span&gt;\(m_s=[-s, s]\)&lt;br&gt;&lt;/span&gt;\(m_\ell=[-\ell, \ell]\)" style="rounded=1;whiteSpace=wrap;html=1;shadow=0;glass=0;sketch=0;fontSize=12;" parent="1" vertex="1">
          <mxGeometry x="780" y="560" width="200" height="60" as="geometry" />
        </mxCell>
        <mxCell id="Ik9TuV0_vZSBALLoncqh-41" value="Difference between&lt;br&gt;&amp;nbsp;&lt;b&gt;#spin&amp;nbsp;&lt;/b&gt;&lt;b&gt;magnetic&lt;/b&gt;&lt;b&gt;&amp;nbsp;momentum&lt;/b&gt;&amp;nbsp;and &lt;b&gt;#orbital&amp;nbsp;&lt;/b&gt;&lt;b&gt;magnetic&lt;/b&gt;&lt;b&gt;&amp;nbsp;momentum&lt;/b&gt;" style="rounded=1;whiteSpace=wrap;html=1;shadow=0;glass=0;sketch=0;fontSize=12;" parent="1" vertex="1">
          <mxGeometry x="780" y="500" width="200" height="60" as="geometry" />
        </mxCell>
        <mxCell id="Ik9TuV0_vZSBALLoncqh-44" value="&lt;span&gt;\(L_{z}\left|\ell m_{\ell}\right\rangle=m_{\ell} \hbar\left|\ell m_{\ell}\right\rangle\)&lt;/span&gt;" style="rounded=1;whiteSpace=wrap;html=1;shadow=0;glass=0;sketch=0;fontSize=12;" parent="1" vertex="1">
          <mxGeometry x="780" y="380" width="200" height="60" as="geometry" />
        </mxCell>
        <mxCell id="Ik9TuV0_vZSBALLoncqh-45" value="&lt;span&gt;\(\mathbf{L}^{2}\left|\ell m_{\ell}\right\rangle=\ell(\ell+1) \hbar^{2}\left|\ell m_{\ell}\right\rangle\)&lt;/span&gt;" style="rounded=1;whiteSpace=wrap;html=1;shadow=0;glass=0;sketch=0;fontSize=12;" parent="1" vertex="1">
          <mxGeometry x="560" y="380" width="200" height="60" as="geometry" />
        </mxCell>
        <mxCell id="Ik9TuV0_vZSBALLoncqh-48" value="&lt;b&gt;central potential&lt;/b&gt;" style="shape=callout;whiteSpace=wrap;html=1;perimeter=calloutPerimeter;shadow=0;glass=0;sketch=0;fontSize=12;size=10;position=0.5;rounded=1;" parent="1" vertex="1">
          <mxGeometry x="170" y="-730" width="200" height="40" as="geometry" />
        </mxCell>
        <mxCell id="Ik9TuV0_vZSBALLoncqh-51" value="" style="shape=curlyBracket;whiteSpace=wrap;html=1;rounded=1;shadow=0;glass=0;sketch=0;fontSize=12;" parent="1" vertex="1">
          <mxGeometry x="140" y="-690" width="20" height="180" as="geometry" />
        </mxCell>
        <mxCell id="Ik9TuV0_vZSBALLoncqh-60" value="\(\psi_{s y s}(\mathbf{R}, \mathbf{r})=\psi_{\mathrm{CM}}(\mathbf{R}) \psi_{\mathrm{rel}}(\mathbf{r})\)" style="rounded=1;whiteSpace=wrap;html=1;shadow=0;glass=0;sketch=0;fontSize=12;" parent="1" vertex="1">
          <mxGeometry x="170" y="-570" width="200" height="60" as="geometry" />
        </mxCell>
        <mxCell id="Ik9TuV0_vZSBALLoncqh-61" value="\(\psi_{\mathrm{CM}}(X, Y, Z)\)" style="whiteSpace=wrap;html=1;rounded=1;shadow=0;glass=0;sketch=0;" parent="1" vertex="1">
          <mxGeometry x="400" y="-610" width="190" height="60" as="geometry" />
        </mxCell>
        <mxCell id="Ik9TuV0_vZSBALLoncqh-63" value="\(\psi_{\mathrm{rel}}(r, \theta, \phi)=R(r) \Theta(\theta) \Phi(\phi)\)" style="whiteSpace=wrap;html=1;rounded=1;shadow=0;glass=0;sketch=0;" parent="1" vertex="1">
          <mxGeometry x="400" y="-530" width="190" height="60" as="geometry" />
        </mxCell>
        <mxCell id="Ik9TuV0_vZSBALLoncqh-64" value="" style="shape=curlyBracket;whiteSpace=wrap;html=1;rounded=1;shadow=0;glass=0;sketch=0;fontSize=12;" parent="1" vertex="1">
          <mxGeometry x="370" y="-610" width="20" height="140" as="geometry" />
        </mxCell>
        <mxCell id="Ik9TuV0_vZSBALLoncqh-76" value="" style="shape=link;html=1;rounded=0;fontSize=12;entryX=0;entryY=0.5;entryDx=0;entryDy=0;" parent="1" target="cmI_KTom7d1FH1pwmFM4-10" edge="1">
          <mxGeometry width="100" relative="1" as="geometry">
            <mxPoint x="370" y="-660" as="sourcePoint" />
            <mxPoint x="470" y="-660" as="targetPoint" />
          </mxGeometry>
        </mxCell>
        <mxCell id="Ik9TuV0_vZSBALLoncqh-81" value="separation of CM and&amp;nbsp;relative" style="shape=callout;whiteSpace=wrap;html=1;perimeter=calloutPerimeter;shadow=0;glass=0;sketch=0;fontSize=12;size=10;position=0.5;rounded=1;" parent="1" vertex="1">
          <mxGeometry x="170" y="-610" width="200" height="40" as="geometry" />
        </mxCell>
        <mxCell id="Ik9TuV0_vZSBALLoncqh-86" style="edgeStyle=orthogonalEdgeStyle;rounded=0;orthogonalLoop=1;jettySize=auto;html=1;fontSize=12;" parent="1" source="Ik9TuV0_vZSBALLoncqh-87" target="Ik9TuV0_vZSBALLoncqh-88" edge="1">
          <mxGeometry relative="1" as="geometry" />
        </mxCell>
        <mxCell id="Ik9TuV0_vZSBALLoncqh-87" value="Classical angular momentum:&lt;br&gt;\(\mathbf{L}=\mathbf{r} \times \mathbf{p}\)" style="rounded=1;whiteSpace=wrap;html=1;" parent="1" vertex="1">
          <mxGeometry x="400" y="-330" width="120" height="60" as="geometry" />
        </mxCell>
        <mxCell id="Ik9TuV0_vZSBALLoncqh-88" value="Classical torque:&lt;br&gt;\(\tau=\mathbf{r} \times \mathbf{F}=\frac{d \mathbf{L}}{d t}\)" style="rounded=1;whiteSpace=wrap;html=1;" parent="1" vertex="1">
          <mxGeometry x="400" y="-250" width="120" height="60" as="geometry" />
        </mxCell>
        <mxCell id="Ik9TuV0_vZSBALLoncqh-89" value="" style="shape=flexArrow;endArrow=classic;html=1;rounded=0;fontSize=12;" parent="1" edge="1">
          <mxGeometry width="50" height="50" relative="1" as="geometry">
            <mxPoint x="280" y="-400" as="sourcePoint" />
            <mxPoint x="360" y="-400" as="targetPoint" />
          </mxGeometry>
        </mxCell>
      </root>
    </mxGraphModel>
  </diagram>
</mxfile>
